<svg width="600" height="600" viewBox="0 0 600 600" fill="none" xmlns="http://www.w3.org/2000/svg">
<path d="M338.979 85.7738C184 89.2693 131.333 104.269 88 114.769C58.001 121.353 38.4795 141.274 25.9795 164.774C13.4795 188.274 14.4795 226.274 19.4795 309.774C21.9872 351.652 26.8822 376.183 39 394C54 410.5 70.1483 422.801 124.979 431.774C212.979 446.174 366.959 442.279 367.979 442.774C369 443.269 370.479 447.274 376.479 457.274C383.979 469.774 429.979 515.774 433.479 515.774C436.279 515.774 433.979 467.107 432.479 442.774C430.979 442.774 433.979 442.574 457.979 441.774C487.979 440.774 533.479 436.774 545.979 369.774C558.479 302.774 547.479 180.274 543.479 155.274C539.479 130.274 525.479 106.274 505.479 97.2738C485.479 88.2738 465.947 82.91 338.979 85.7738Z" fill="#FFDD00"/>
<path d="M162.447 325.945C150.448 325.127 138.849 324.421 127.274 323.505C123.708 323.222 122.162 324.47 120.981 327.907C117.506 338.089 113.631 348.141 109.651 358.144C108.633 360.705 106.85 363.064 105.035 365.196C100.77 370.214 95.438 371.414 90.147 368.868C84.278 366.047 81.5756 361.638 83.3012 355.007C87.0945 340.448 90.9447 325.848 95.8287 311.63C102.373 292.555 109.618 273.7 117.115 254.966C122.414 241.737 128.014 228.564 134.624 215.95C139.614 206.425 146.11 197.776 157.839 194.801C169.244 191.915 179.826 197.306 184.718 207.35C191.328 220.911 193.436 235.43 194.144 250.102C195.463 277.445 196.106 304.828 196.83 332.195C197.099 342.442 197.009 352.704 196.749 362.943C196.545 370.919 193.053 376.732 184.946 379.463C175.845 382.536 166.883 378.653 164.718 369.209C163.171 362.473 163.155 355.347 162.886 348.384C162.634 341.785 162.96 335.17 162.968 328.556C162.968 327.534 162.577 326.521 162.455 325.929L162.447 325.945ZM131.368 295.806C138.8 296.317 144.889 296.536 150.92 297.192C163.244 298.538 162.349 295.693 161.812 286.913C160.982 273.189 160.786 259.433 159.948 245.709C159.777 242.92 157.953 240.221 156.895 237.489C155.357 239.694 153.354 241.72 152.353 244.144C145.361 261.03 138.58 277.996 131.376 295.806H131.368Z" fill="white"/>
<path d="M498.491 301.902C502.536 290.967 506.151 281.044 509.879 271.171C518.312 248.87 526.712 226.562 535.3 204.326C540.534 190.772 545.63 177.137 553.46 164.759C556.887 159.344 560.681 154.415 567.071 152.008C577.482 148.076 589.504 155.056 589.944 166.113C590.164 171.649 589.529 177.599 587.665 182.787C578.263 208.922 568.332 234.879 558.572 260.884C553.745 273.741 549.154 286.695 543.977 299.413C534.893 321.738 525.605 343.982 516.041 366.104C512.41 374.494 505.76 379.861 496.358 381.158C487.722 382.349 476.553 378.556 472.353 367.426C468.275 356.628 464.946 345.522 461.722 334.433C458.914 324.754 456.529 314.937 454.291 305.112C450.448 288.3 446.818 271.43 443.188 254.577C440.689 243.001 437.97 231.458 436.049 219.777C434.982 213.316 434.795 206.588 435.21 200.046C435.853 189.937 442.813 184.652 451.71 181.701C459.598 179.091 466.533 181.644 471.132 188.057C474.16 192.28 476.179 197.606 477.302 202.729C482.455 226.124 487.135 249.632 492.003 273.092C493.721 281.377 495.495 289.645 497.262 297.922C497.473 298.895 497.848 299.835 498.491 301.902Z" fill="white"/>
<path d="M346.313 196.43C330.757 196.982 315.193 198.165 299.646 197.898C285.629 197.663 275.34 191.097 277.22 174.495C278.124 166.55 283.545 161.192 290.96 158.452C295.226 156.88 299.833 155.915 304.367 155.437C318.49 153.945 332.654 152.753 346.809 151.57C364.628 150.087 382.446 148.603 400.281 147.355C411.351 146.576 422.438 146.058 433.533 145.782C440.037 145.62 446.37 146.925 450.635 152.478C458.401 162.603 456.252 173.044 445.776 179.772C439.98 183.493 432.548 184.83 425.71 186.735C420.647 188.146 415.348 188.673 410.171 189.686C403.846 190.926 400.94 194.355 401.209 200.646C402.438 229.213 403.895 257.771 404.97 286.346C405.629 303.872 405.963 321.422 405.955 338.956C405.955 343.836 404.823 348.943 403.13 353.556C399.972 362.173 391.669 366.874 381.811 366.583C372.947 366.323 364.416 360.511 362.007 351.78C360.126 344.971 358.873 337.789 358.718 330.736C357.847 290.375 357.391 250.005 356.797 209.636C356.781 208.558 356.756 207.471 356.732 206.393C356.512 197.622 354.965 196.131 346.321 196.422L346.313 196.43Z" fill="white"/>
<path d="M295.502 302.607C295.795 296.73 296.275 290.853 296.357 284.968C296.642 264.046 296.601 243.115 297.089 222.201C297.301 212.943 304.375 204.999 312.735 205.056C321.314 205.112 329.56 210.698 329.487 221.512C329.267 253.515 329.462 285.519 329.202 317.523C329.096 330.866 328.502 344.217 327.606 357.536C327.126 364.726 324.936 371.568 319.255 376.724C310.618 384.554 297.505 383.128 291.041 373.4C287.614 368.253 284.7 362.773 281.412 357.528C280.671 356.344 279.352 355.526 278.571 354.796C278.571 353.621 278.962 352.283 278.514 351.343C270.822 335.008 263.015 318.731 255.258 302.437C252.319 296.26 249.413 290.067 245.742 283.849C245.474 287.181 245.001 290.513 244.985 293.853C244.879 314.645 244.953 335.43 244.774 356.223C244.733 360.633 244.261 365.124 243.292 369.42C241.574 377.032 235.193 380.793 225.824 380.323C219.588 380.007 214.721 375.313 213.809 368.212C213.158 363.146 212.686 358.022 212.686 352.923C212.686 316.331 212.718 279.747 212.979 243.155C213.044 234.417 213.638 225.694 216.886 217.304C219.775 209.83 224.684 204.902 232.702 204.042C240.728 203.183 247.093 206.539 250.773 213.794C256.389 224.843 261.705 236.038 267.085 247.209C272.93 259.328 278.677 271.495 284.497 283.63C287.614 290.132 290.805 296.609 293.964 303.094C294.477 302.932 294.997 302.77 295.51 302.607H295.502Z" fill="white"/>
<path d="M80.1991 234.02C72.2056 234.02 64.204 233.922 56.2105 234.052C50.7648 234.141 48.51 236.103 48.0053 241.38C47.4681 247.022 47.1995 252.697 47.1181 258.363C47.0448 263.138 48.6728 265.189 53.4998 265.545C61.1677 266.113 68.8682 266.113 76.5605 266.323C81.9167 266.469 87.3461 266.826 90.9847 271.341C96.6745 278.41 95.2826 289.986 82.8202 292.685C74.6558 294.452 66.2146 295.069 57.8629 295.912C51.0008 296.609 47.9646 299.373 47.7367 306.247C47.1913 322.703 46.6134 339.159 46.3122 355.615C46.1901 362.359 44.904 368.577 39.7106 373.173C30.2763 381.523 17.4558 377.899 14.4359 365.505C12.4741 357.463 11.7578 348.968 11.6438 340.659C11.1473 307.163 10.8542 273.668 11.074 240.172C11.131 231.393 12.702 222.476 14.7045 213.884C16.886 204.537 24.7167 200.119 33.3614 198.611C41.5421 197.184 50.0566 197.184 58.4164 197.249C72.5068 197.355 86.6135 197.752 100.679 198.571C105.547 198.854 110.529 200.216 115.087 202.024C120.639 204.229 122.91 211.841 120.899 218.853C117.912 229.269 113.866 232.552 102.975 232.836C95.3884 233.031 87.8019 232.877 80.2073 232.877C80.2073 233.258 80.2073 233.647 80.2073 234.028L80.1991 234.02Z" fill="white"/>
</svg>
